<mxfile host="app.diagrams.net" modified="2023-05-16T10:47:52.057Z" agent="5.0 (Windows NT 10.0; Win64; x64) AppleWebKit/537.36 (KHTML, like Gecko) Chrome/113.0.0.0 Safari/537.36" etag="R2Bm3QZISSwiGcknW0CA" version="21.0.10" type="github">
  <diagram name="Page-1" id="c7488fd3-1785-93aa-aadb-54a6760d102a">
    <mxGraphModel dx="1155" dy="550" grid="1" gridSize="10" guides="1" tooltips="1" connect="1" arrows="1" fold="1" page="1" pageScale="1" pageWidth="1100" pageHeight="850" background="none" math="0" shadow="0">
      <root>
        <mxCell id="0" />
        <mxCell id="1" parent="0" />
        <mxCell id="2b4e8129b02d487f-1" value="CUSTOMER OMNI CHANNEL BOT (Day1)" style="swimlane;html=1;childLayout=stackLayout;horizontal=1;startSize=20;horizontalStack=0;rounded=0;shadow=0;labelBackgroundColor=none;strokeWidth=1;fontFamily=Verdana;fontSize=8;align=center;" parent="1" vertex="1">
          <mxGeometry x="180" y="70" width="960" height="530" as="geometry">
            <mxRectangle x="180" y="70" width="220" height="20" as="alternateBounds" />
          </mxGeometry>
        </mxCell>
        <mxCell id="2b4e8129b02d487f-2" value="Customer/Prospect" style="swimlane;html=1;startSize=20;horizontal=0;" parent="2b4e8129b02d487f-1" vertex="1">
          <mxGeometry y="20" width="960" height="150" as="geometry" />
        </mxCell>
        <mxCell id="2b4e8129b02d487f-18" style="edgeStyle=orthogonalEdgeStyle;rounded=0;html=1;labelBackgroundColor=none;startArrow=none;startFill=0;startSize=5;endArrow=classicThin;endFill=1;endSize=5;jettySize=auto;orthogonalLoop=1;strokeWidth=1;fontFamily=Verdana;fontSize=8" parent="2b4e8129b02d487f-2" source="2b4e8129b02d487f-5" target="2b4e8129b02d487f-6" edge="1">
          <mxGeometry relative="1" as="geometry" />
        </mxCell>
        <mxCell id="2b4e8129b02d487f-5" value="" style="ellipse;whiteSpace=wrap;html=1;rounded=0;shadow=0;labelBackgroundColor=none;strokeWidth=1;fontFamily=Verdana;fontSize=8;align=center;" parent="2b4e8129b02d487f-2" vertex="1">
          <mxGeometry x="60" y="60" width="30" height="30" as="geometry" />
        </mxCell>
        <mxCell id="2b4e8129b02d487f-6" value="Start" style="rounded=1;whiteSpace=wrap;html=1;shadow=0;labelBackgroundColor=none;strokeWidth=1;fontFamily=Verdana;fontSize=8;align=center;" parent="2b4e8129b02d487f-2" vertex="1">
          <mxGeometry x="120" y="56.49999999999997" width="70" height="37" as="geometry" />
        </mxCell>
        <mxCell id="Pig2w74-dIn3M1m2GW-g-24" value="Customer Interactive Menu" style="rounded=1;whiteSpace=wrap;html=1;shadow=0;labelBackgroundColor=none;strokeWidth=1;fontFamily=Verdana;fontSize=8;align=center;" vertex="1" parent="2b4e8129b02d487f-2">
          <mxGeometry x="230" y="56.5" width="70" height="37" as="geometry" />
        </mxCell>
        <mxCell id="Pig2w74-dIn3M1m2GW-g-31" value="Customer&lt;br&gt;Linked Policy&lt;br&gt;Policy number" style="rounded=1;whiteSpace=wrap;html=1;shadow=0;labelBackgroundColor=none;strokeWidth=1;fontFamily=Verdana;fontSize=8;align=center;" vertex="1" parent="2b4e8129b02d487f-2">
          <mxGeometry x="438" y="56.5" width="81" height="37" as="geometry" />
        </mxCell>
        <mxCell id="Pig2w74-dIn3M1m2GW-g-47" value="Customer&lt;br&gt;Linked Policy&lt;br&gt;Policy number" style="rounded=1;whiteSpace=wrap;html=1;shadow=0;labelBackgroundColor=none;strokeWidth=1;fontFamily=Verdana;fontSize=8;align=center;" vertex="1" parent="2b4e8129b02d487f-2">
          <mxGeometry x="550" y="56.5" width="81" height="37" as="geometry" />
        </mxCell>
        <mxCell id="Pig2w74-dIn3M1m2GW-g-60" value="Change phone number process&lt;br&gt;(Day2)" style="whiteSpace=wrap;html=1;fontSize=8;fontFamily=Verdana;strokeWidth=1;rounded=1;shadow=0;labelBackgroundColor=none;" vertex="1" parent="2b4e8129b02d487f-2">
          <mxGeometry x="820" y="57.5" width="70" height="35" as="geometry" />
        </mxCell>
        <mxCell id="Pig2w74-dIn3M1m2GW-g-79" value="" style="ellipse;whiteSpace=wrap;html=1;rounded=0;shadow=0;labelBackgroundColor=none;strokeWidth=1;fontFamily=Verdana;fontSize=8;align=center;" vertex="1" parent="2b4e8129b02d487f-2">
          <mxGeometry x="730" y="60" width="30" height="30" as="geometry" />
        </mxCell>
        <mxCell id="Pig2w74-dIn3M1m2GW-g-9" style="edgeStyle=orthogonalEdgeStyle;rounded=0;orthogonalLoop=1;jettySize=auto;html=1;entryX=0.5;entryY=0;entryDx=0;entryDy=0;" edge="1" parent="2b4e8129b02d487f-1" source="2b4e8129b02d487f-6" target="Pig2w74-dIn3M1m2GW-g-8">
          <mxGeometry relative="1" as="geometry" />
        </mxCell>
        <mxCell id="Pig2w74-dIn3M1m2GW-g-10" style="edgeStyle=orthogonalEdgeStyle;rounded=0;orthogonalLoop=1;jettySize=auto;html=1;entryX=0.5;entryY=0;entryDx=0;entryDy=0;" edge="1" parent="2b4e8129b02d487f-1" source="Pig2w74-dIn3M1m2GW-g-8" target="Pig2w74-dIn3M1m2GW-g-4">
          <mxGeometry relative="1" as="geometry" />
        </mxCell>
        <mxCell id="Pig2w74-dIn3M1m2GW-g-13" value="" style="edgeStyle=elbowEdgeStyle;elbow=horizontal;endArrow=classic;html=1;curved=0;rounded=0;endSize=8;startSize=8;exitX=0;exitY=0.5;exitDx=0;exitDy=0;entryX=0;entryY=0.5;entryDx=0;entryDy=0;" edge="1" parent="2b4e8129b02d487f-1" source="Pig2w74-dIn3M1m2GW-g-4" target="Pig2w74-dIn3M1m2GW-g-8">
          <mxGeometry width="50" height="50" relative="1" as="geometry">
            <mxPoint x="50" y="355" as="sourcePoint" />
            <mxPoint x="50" y="250" as="targetPoint" />
            <Array as="points">
              <mxPoint x="70" y="330" />
            </Array>
          </mxGeometry>
        </mxCell>
        <mxCell id="Pig2w74-dIn3M1m2GW-g-21" style="edgeStyle=orthogonalEdgeStyle;rounded=0;orthogonalLoop=1;jettySize=auto;html=1;entryX=0.5;entryY=0;entryDx=0;entryDy=0;" edge="1" parent="2b4e8129b02d487f-1" source="2b4e8129b02d487f-13" target="Pig2w74-dIn3M1m2GW-g-19">
          <mxGeometry relative="1" as="geometry" />
        </mxCell>
        <mxCell id="Pig2w74-dIn3M1m2GW-g-22" value="NO" style="edgeLabel;html=1;align=center;verticalAlign=middle;resizable=0;points=[];" vertex="1" connectable="0" parent="Pig2w74-dIn3M1m2GW-g-21">
          <mxGeometry x="-0.7557" relative="1" as="geometry">
            <mxPoint y="1" as="offset" />
          </mxGeometry>
        </mxCell>
        <mxCell id="Pig2w74-dIn3M1m2GW-g-26" value="YES" style="edgeStyle=orthogonalEdgeStyle;rounded=0;orthogonalLoop=1;jettySize=auto;html=1;exitX=0.5;exitY=0;exitDx=0;exitDy=0;exitPerimeter=0;entryX=0.5;entryY=1;entryDx=0;entryDy=0;" edge="1" parent="2b4e8129b02d487f-1" source="2b4e8129b02d487f-13" target="Pig2w74-dIn3M1m2GW-g-24">
          <mxGeometry x="-0.707" relative="1" as="geometry">
            <mxPoint x="265" y="220" as="targetPoint" />
            <mxPoint as="offset" />
          </mxGeometry>
        </mxCell>
        <mxCell id="Pig2w74-dIn3M1m2GW-g-30" style="edgeStyle=orthogonalEdgeStyle;rounded=0;orthogonalLoop=1;jettySize=auto;html=1;" edge="1" parent="2b4e8129b02d487f-1" source="Pig2w74-dIn3M1m2GW-g-19" target="Pig2w74-dIn3M1m2GW-g-29">
          <mxGeometry relative="1" as="geometry" />
        </mxCell>
        <mxCell id="Pig2w74-dIn3M1m2GW-g-32" style="edgeStyle=orthogonalEdgeStyle;rounded=0;orthogonalLoop=1;jettySize=auto;html=1;entryX=0;entryY=0.5;entryDx=0;entryDy=0;" edge="1" parent="2b4e8129b02d487f-1" source="Pig2w74-dIn3M1m2GW-g-29" target="Pig2w74-dIn3M1m2GW-g-31">
          <mxGeometry relative="1" as="geometry">
            <Array as="points">
              <mxPoint x="370" y="95" />
            </Array>
          </mxGeometry>
        </mxCell>
        <mxCell id="Pig2w74-dIn3M1m2GW-g-33" style="edgeStyle=orthogonalEdgeStyle;rounded=0;orthogonalLoop=1;jettySize=auto;html=1;entryX=0.5;entryY=0;entryDx=0;entryDy=0;" edge="1" parent="2b4e8129b02d487f-1" source="Pig2w74-dIn3M1m2GW-g-31" target="Pig2w74-dIn3M1m2GW-g-34">
          <mxGeometry relative="1" as="geometry">
            <mxPoint x="469.5" y="220" as="targetPoint" />
          </mxGeometry>
        </mxCell>
        <mxCell id="Pig2w74-dIn3M1m2GW-g-36" style="edgeStyle=orthogonalEdgeStyle;rounded=0;orthogonalLoop=1;jettySize=auto;html=1;entryX=0.5;entryY=0;entryDx=0;entryDy=0;" edge="1" parent="2b4e8129b02d487f-1" source="Pig2w74-dIn3M1m2GW-g-34" target="Pig2w74-dIn3M1m2GW-g-35">
          <mxGeometry relative="1" as="geometry" />
        </mxCell>
        <mxCell id="Pig2w74-dIn3M1m2GW-g-38" style="edgeStyle=orthogonalEdgeStyle;rounded=0;orthogonalLoop=1;jettySize=auto;html=1;entryX=0;entryY=0.5;entryDx=0;entryDy=0;" edge="1" parent="2b4e8129b02d487f-1" source="Pig2w74-dIn3M1m2GW-g-35" target="Pig2w74-dIn3M1m2GW-g-34">
          <mxGeometry relative="1" as="geometry">
            <Array as="points">
              <mxPoint x="424" y="395" />
              <mxPoint x="424" y="245" />
            </Array>
          </mxGeometry>
        </mxCell>
        <mxCell id="Pig2w74-dIn3M1m2GW-g-48" style="edgeStyle=orthogonalEdgeStyle;rounded=0;orthogonalLoop=1;jettySize=auto;html=1;entryX=0.5;entryY=1;entryDx=0;entryDy=0;" edge="1" parent="2b4e8129b02d487f-1" source="Pig2w74-dIn3M1m2GW-g-45" target="Pig2w74-dIn3M1m2GW-g-47">
          <mxGeometry relative="1" as="geometry" />
        </mxCell>
        <mxCell id="Pig2w74-dIn3M1m2GW-g-51" style="edgeStyle=orthogonalEdgeStyle;rounded=0;orthogonalLoop=1;jettySize=auto;html=1;entryX=0.5;entryY=0;entryDx=0;entryDy=0;entryPerimeter=0;" edge="1" parent="2b4e8129b02d487f-1" source="Pig2w74-dIn3M1m2GW-g-47" target="Pig2w74-dIn3M1m2GW-g-50">
          <mxGeometry relative="1" as="geometry" />
        </mxCell>
        <mxCell id="Pig2w74-dIn3M1m2GW-g-54" style="edgeStyle=orthogonalEdgeStyle;rounded=0;orthogonalLoop=1;jettySize=auto;html=1;entryX=0.5;entryY=0;entryDx=0;entryDy=0;" edge="1" parent="2b4e8129b02d487f-1" source="Pig2w74-dIn3M1m2GW-g-50" target="Pig2w74-dIn3M1m2GW-g-53">
          <mxGeometry relative="1" as="geometry" />
        </mxCell>
        <mxCell id="Pig2w74-dIn3M1m2GW-g-55" value="YES" style="edgeLabel;html=1;align=center;verticalAlign=middle;resizable=0;points=[];" vertex="1" connectable="0" parent="Pig2w74-dIn3M1m2GW-g-54">
          <mxGeometry x="-0.6937" y="-1" relative="1" as="geometry">
            <mxPoint as="offset" />
          </mxGeometry>
        </mxCell>
        <mxCell id="2b4e8129b02d487f-3" value="Bot Handler" style="swimlane;html=1;startSize=20;horizontal=0;" parent="2b4e8129b02d487f-1" vertex="1">
          <mxGeometry y="170" width="960" height="150" as="geometry" />
        </mxCell>
        <mxCell id="2b4e8129b02d487f-13" value="" style="strokeWidth=1;html=1;shape=mxgraph.flowchart.decision;whiteSpace=wrap;rounded=1;shadow=0;labelBackgroundColor=none;fontFamily=Verdana;fontSize=8;align=center;" parent="2b4e8129b02d487f-3" vertex="1">
          <mxGeometry x="250" y="59.999999999999915" width="30" height="30" as="geometry" />
        </mxCell>
        <mxCell id="Pig2w74-dIn3M1m2GW-g-20" style="edgeStyle=orthogonalEdgeStyle;rounded=0;orthogonalLoop=1;jettySize=auto;html=1;entryX=0;entryY=0.5;entryDx=0;entryDy=0;entryPerimeter=0;" edge="1" parent="2b4e8129b02d487f-3" source="Pig2w74-dIn3M1m2GW-g-8" target="2b4e8129b02d487f-13">
          <mxGeometry relative="1" as="geometry" />
        </mxCell>
        <mxCell id="Pig2w74-dIn3M1m2GW-g-8" value="Check Customer&lt;br&gt;IsOnboarded" style="rounded=1;whiteSpace=wrap;html=1;shadow=0;labelBackgroundColor=none;strokeWidth=1;fontFamily=Verdana;fontSize=8;align=center;" vertex="1" parent="2b4e8129b02d487f-3">
          <mxGeometry x="120" y="56.5" width="70" height="37" as="geometry" />
        </mxCell>
        <mxCell id="Pig2w74-dIn3M1m2GW-g-29" value="Send registered&amp;nbsp;&lt;br&gt;Message" style="rounded=1;whiteSpace=wrap;html=1;shadow=0;labelBackgroundColor=none;strokeWidth=1;fontFamily=Verdana;fontSize=8;align=center;" vertex="1" parent="2b4e8129b02d487f-3">
          <mxGeometry x="335" y="56.5" width="70" height="37" as="geometry" />
        </mxCell>
        <mxCell id="Pig2w74-dIn3M1m2GW-g-46" style="edgeStyle=orthogonalEdgeStyle;rounded=0;orthogonalLoop=1;jettySize=auto;html=1;entryX=0;entryY=0.5;entryDx=0;entryDy=0;" edge="1" parent="2b4e8129b02d487f-3" source="Pig2w74-dIn3M1m2GW-g-34" target="Pig2w74-dIn3M1m2GW-g-45">
          <mxGeometry relative="1" as="geometry" />
        </mxCell>
        <mxCell id="Pig2w74-dIn3M1m2GW-g-34" value="Inquiry PO&lt;br&gt;Phone Number&lt;br&gt;(Primary)" style="rounded=1;whiteSpace=wrap;html=1;shadow=0;labelBackgroundColor=none;strokeWidth=1;fontFamily=Verdana;fontSize=8;align=center;" vertex="1" parent="2b4e8129b02d487f-3">
          <mxGeometry x="444" y="56.5" width="70" height="37" as="geometry" />
        </mxCell>
        <mxCell id="Pig2w74-dIn3M1m2GW-g-45" value="OTP" style="rounded=1;whiteSpace=wrap;html=1;shadow=0;labelBackgroundColor=none;strokeWidth=1;fontFamily=Verdana;fontSize=8;align=center;" vertex="1" parent="2b4e8129b02d487f-3">
          <mxGeometry x="555" y="56.5" width="70" height="37" as="geometry" />
        </mxCell>
        <mxCell id="Pig2w74-dIn3M1m2GW-g-58" value="" style="edgeStyle=orthogonalEdgeStyle;rounded=0;orthogonalLoop=1;jettySize=auto;html=1;" edge="1" parent="2b4e8129b02d487f-3" source="Pig2w74-dIn3M1m2GW-g-50" target="Pig2w74-dIn3M1m2GW-g-57">
          <mxGeometry relative="1" as="geometry" />
        </mxCell>
        <mxCell id="Pig2w74-dIn3M1m2GW-g-59" value="NO" style="edgeLabel;html=1;align=center;verticalAlign=middle;resizable=0;points=[];" vertex="1" connectable="0" parent="Pig2w74-dIn3M1m2GW-g-58">
          <mxGeometry x="-0.7692" y="2" relative="1" as="geometry">
            <mxPoint as="offset" />
          </mxGeometry>
        </mxCell>
        <mxCell id="Pig2w74-dIn3M1m2GW-g-50" value="" style="strokeWidth=1;html=1;shape=mxgraph.flowchart.decision;whiteSpace=wrap;rounded=1;shadow=0;labelBackgroundColor=none;fontFamily=Verdana;fontSize=8;align=center;" vertex="1" parent="2b4e8129b02d487f-3">
          <mxGeometry x="660" y="59.999999999999886" width="30" height="30" as="geometry" />
        </mxCell>
        <mxCell id="Pig2w74-dIn3M1m2GW-g-52" value="OTP Succeed?" style="text;html=1;align=center;verticalAlign=middle;resizable=0;points=[];autosize=1;strokeColor=none;fillColor=none;" vertex="1" parent="2b4e8129b02d487f-3">
          <mxGeometry x="630" y="26.5" width="100" height="30" as="geometry" />
        </mxCell>
        <mxCell id="Pig2w74-dIn3M1m2GW-g-57" value="Change phone number process&lt;br&gt;(Day2)" style="whiteSpace=wrap;html=1;fontSize=8;fontFamily=Verdana;strokeWidth=1;rounded=1;shadow=0;labelBackgroundColor=none;" vertex="1" parent="2b4e8129b02d487f-3">
          <mxGeometry x="820" y="57.5" width="70" height="35" as="geometry" />
        </mxCell>
        <mxCell id="Pig2w74-dIn3M1m2GW-g-77" value="Send onboarded&lt;br&gt;message" style="rounded=1;whiteSpace=wrap;html=1;shadow=0;labelBackgroundColor=none;strokeWidth=1;fontFamily=Verdana;fontSize=8;align=center;" vertex="1" parent="2b4e8129b02d487f-3">
          <mxGeometry x="710" y="100" width="70" height="37" as="geometry" />
        </mxCell>
        <mxCell id="Pig2w74-dIn3M1m2GW-g-61" style="edgeStyle=orthogonalEdgeStyle;rounded=0;orthogonalLoop=1;jettySize=auto;html=1;entryX=0.5;entryY=1;entryDx=0;entryDy=0;" edge="1" parent="2b4e8129b02d487f-1" source="Pig2w74-dIn3M1m2GW-g-57" target="Pig2w74-dIn3M1m2GW-g-60">
          <mxGeometry relative="1" as="geometry" />
        </mxCell>
        <mxCell id="2b4e8129b02d487f-4" value="PCLA Customer Bot API" style="swimlane;html=1;startSize=20;horizontal=0;" parent="2b4e8129b02d487f-1" vertex="1">
          <mxGeometry y="320" width="960" height="210" as="geometry" />
        </mxCell>
        <mxCell id="Pig2w74-dIn3M1m2GW-g-4" value="API&lt;br&gt;Get&amp;nbsp;&lt;b style=&quot;border-color: var(--border-color); font-size: 10px; background-color: rgb(251, 251, 251);&quot;&gt;BotMember&lt;/b&gt;&lt;span style=&quot;font-size: 10px; background-color: rgb(251, 251, 251);&quot;&gt;&lt;/span&gt;&lt;br style=&quot;border-color: var(--border-color); font-size: 10px; background-color: rgb(251, 251, 251);&quot;&gt;&lt;span style=&quot;font-size: 10px; background-color: rgb(251, 251, 251);&quot;&gt;object&lt;/span&gt;" style="shape=image;html=1;verticalAlign=top;verticalLabelPosition=bottom;labelBackgroundColor=#ffffff;imageAspect=0;aspect=fixed;image=https://cdn0.iconfinder.com/data/icons/google-material-design-3-0/48/ic_code_48px-128.png" vertex="1" parent="2b4e8129b02d487f-4">
          <mxGeometry x="131" y="51.5" width="48" height="48" as="geometry" />
        </mxCell>
        <mxCell id="Pig2w74-dIn3M1m2GW-g-14" value="&lt;i&gt;&lt;font style=&quot;font-size: 10px;&quot; face=&quot;Lucida Console&quot;&gt;api/BotMember/MemberID/{MemberId}&lt;/font&gt;&lt;/i&gt;" style="text;html=1;align=center;verticalAlign=middle;resizable=0;points=[];autosize=1;strokeColor=none;fillColor=none;" vertex="1" parent="2b4e8129b02d487f-4">
          <mxGeometry x="30" y="149" width="220" height="30" as="geometry" />
        </mxCell>
        <mxCell id="Pig2w74-dIn3M1m2GW-g-19" value="API&lt;br&gt;Register&amp;nbsp;&lt;br style=&quot;border-color: var(--border-color); font-size: 10px; background-color: rgb(251, 251, 251);&quot;&gt;&lt;b style=&quot;border-color: var(--border-color); font-size: 10px; background-color: rgb(251, 251, 251);&quot;&gt;BotMember&lt;/b&gt;" style="shape=image;html=1;verticalAlign=top;verticalLabelPosition=bottom;labelBackgroundColor=#ffffff;imageAspect=0;aspect=fixed;image=https://cdn0.iconfinder.com/data/icons/google-material-design-3-0/48/ic_code_48px-128.png" vertex="1" parent="2b4e8129b02d487f-4">
          <mxGeometry x="241" y="51" width="48" height="48" as="geometry" />
        </mxCell>
        <mxCell id="Pig2w74-dIn3M1m2GW-g-23" value="&lt;i&gt;&lt;font style=&quot;font-size: 10px;&quot; face=&quot;Lucida Console&quot;&gt;api/BotMember/Register&lt;/font&gt;&lt;/i&gt;" style="text;html=1;align=center;verticalAlign=middle;resizable=0;points=[];autosize=1;strokeColor=none;fillColor=none;" vertex="1" parent="2b4e8129b02d487f-4">
          <mxGeometry x="199" y="165" width="160" height="30" as="geometry" />
        </mxCell>
        <mxCell id="Pig2w74-dIn3M1m2GW-g-35" value="API&lt;br&gt;Get &lt;span style=&quot;font-size: 10px; background-color: rgb(251, 251, 251);&quot;&gt;&lt;b&gt;primary phone number&lt;/b&gt;&lt;br&gt;based on client role&lt;br&gt;&lt;/span&gt;" style="shape=image;html=1;verticalAlign=top;verticalLabelPosition=bottom;labelBackgroundColor=#ffffff;imageAspect=0;aspect=fixed;image=https://cdn0.iconfinder.com/data/icons/google-material-design-3-0/48/ic_code_48px-128.png" vertex="1" parent="2b4e8129b02d487f-4">
          <mxGeometry x="455" y="51" width="48" height="48" as="geometry" />
        </mxCell>
        <mxCell id="Pig2w74-dIn3M1m2GW-g-37" value="&lt;i&gt;&lt;font style=&quot;font-size: 10px;&quot; face=&quot;Lucida Console&quot;&gt;api/BotMember/policy/{polNum}/getphonenumber?clientrole&amp;amp;&lt;/font&gt;&lt;/i&gt;" style="text;html=1;align=center;verticalAlign=middle;resizable=0;points=[];autosize=1;strokeColor=none;fillColor=none;" vertex="1" parent="2b4e8129b02d487f-4">
          <mxGeometry x="330" y="180" width="360" height="30" as="geometry" />
        </mxCell>
        <mxCell id="Pig2w74-dIn3M1m2GW-g-53" value="API&lt;br&gt;Onboard&amp;nbsp;Customer" style="shape=image;html=1;verticalAlign=top;verticalLabelPosition=bottom;labelBackgroundColor=#ffffff;imageAspect=0;aspect=fixed;image=https://cdn0.iconfinder.com/data/icons/google-material-design-3-0/48/ic_code_48px-128.png" vertex="1" parent="2b4e8129b02d487f-4">
          <mxGeometry x="651" y="51" width="48" height="48" as="geometry" />
        </mxCell>
        <mxCell id="Pig2w74-dIn3M1m2GW-g-56" value="&lt;div style=&quot;text-align: left;&quot;&gt;&lt;i style=&quot;background-color: initial;&quot;&gt;&lt;font style=&quot;font-size: 10px;&quot; face=&quot;Lucida Console&quot;&gt;- api/BotMember/member/linkLasPolicy&lt;/font&gt;&lt;/i&gt;&lt;/div&gt;&lt;i style=&quot;border-color: var(--border-color);&quot;&gt;&lt;div style=&quot;text-align: left;&quot;&gt;&lt;i style=&quot;background-color: initial; border-color: var(--border-color);&quot;&gt;&lt;font style=&quot;border-color: var(--border-color); font-size: 10px;&quot; face=&quot;Lucida Console&quot;&gt;- api/BotMember/member/linkDpasPolicy&lt;/font&gt;&lt;/i&gt;&lt;i style=&quot;background-color: initial;&quot;&gt;&lt;font style=&quot;font-size: 10px;&quot; face=&quot;Lucida Console&quot;&gt;&amp;nbsp;&lt;/font&gt;&lt;/i&gt;&lt;/div&gt;&lt;/i&gt;" style="text;html=1;align=center;verticalAlign=middle;resizable=0;points=[];autosize=1;strokeColor=none;fillColor=none;" vertex="1" parent="2b4e8129b02d487f-4">
          <mxGeometry x="600" y="130" width="250" height="40" as="geometry" />
        </mxCell>
        <mxCell id="Pig2w74-dIn3M1m2GW-g-78" style="edgeStyle=orthogonalEdgeStyle;rounded=0;orthogonalLoop=1;jettySize=auto;html=1;" edge="1" parent="2b4e8129b02d487f-1" source="Pig2w74-dIn3M1m2GW-g-53" target="Pig2w74-dIn3M1m2GW-g-77">
          <mxGeometry relative="1" as="geometry" />
        </mxCell>
        <mxCell id="Pig2w74-dIn3M1m2GW-g-80" style="edgeStyle=orthogonalEdgeStyle;rounded=0;orthogonalLoop=1;jettySize=auto;html=1;entryX=0.5;entryY=1;entryDx=0;entryDy=0;" edge="1" parent="2b4e8129b02d487f-1" source="Pig2w74-dIn3M1m2GW-g-77" target="Pig2w74-dIn3M1m2GW-g-79">
          <mxGeometry relative="1" as="geometry" />
        </mxCell>
        <mxCell id="Pig2w74-dIn3M1m2GW-g-81" value="&lt;i style=&quot;border-color: var(--border-color);&quot;&gt;&lt;font style=&quot;border-color: var(--border-color); font-size: 10px;&quot; face=&quot;Lucida Console&quot;&gt;api/BotMember/getPhoneNumber?poiclient&lt;/font&gt;&lt;/i&gt;" style="text;html=1;align=center;verticalAlign=middle;resizable=0;points=[];autosize=1;strokeColor=none;fillColor=none;" vertex="1" parent="1">
          <mxGeometry x="925" y="445" width="250" height="30" as="geometry" />
        </mxCell>
      </root>
    </mxGraphModel>
  </diagram>
</mxfile>
